<?xml version="1.0" standalone="no"?>
<!DOCTYPE svg PUBLIC "-//W3C//DTD SVG 20010904//EN"
 "http://www.w3.org/TR/2001/REC-SVG-20010904/DTD/svg10.dtd">
<svg version="1.0" xmlns="http://www.w3.org/2000/svg"
 width="320.000000pt" height="320.000000pt" viewBox="0 0 320.000000 320.000000"
 preserveAspectRatio="xMidYMid meet">
<metadata>
Created by potrace 1.11, written by Peter Selinger 2001-2013
</metadata>
<g transform="translate(0.000000,320.000000) scale(0.100000,-0.100000)"
fill="#000000" stroke="none">
<path d="M350 3181 c-89 -29 -141 -60 -206 -125 -65 -65 -102 -127 -128 -215
-14 -49 -16 -179 -16 -1241 0 -1297 -3 -1225 57 -1345 33 -64 134 -165 198
-198 120 -60 48 -57 1345 -57 1297 0 1225 -3 1345 57 64 33 165 134 198 198
60 120 57 48 57 1345 0 1297 3 1225 -57 1345 -33 64 -134 165 -198 198 -120
60 -47 57 -1349 56 -1113 0 -1195 -1 -1246 -18z"/>
</g>
</svg>
